<svg xmlns="http://www.w3.org/2000/svg" xmlns:xlink="http://www.w3.org/1999/xlink" viewBox="0,0,256,256" width="50px" height="50px" fill-rule="nonzero"><g transform="translate(25.6,25.6) scale(0.8,0.8)"><g fill="#000000" fill-rule="nonzero" stroke="none" stroke-width="1" stroke-linecap="butt" stroke-linejoin="miter" stroke-miterlimit="10" stroke-dasharray="" stroke-dashoffset="0" font-family="none" font-weight="none" font-size="none" text-anchor="none" style="mix-blend-mode: normal"><g transform="scale(5.12,5.12)"><path d="M14.61719,28.41797c-0.19141,-0.48047 -0.38672,-0.95703 -0.58203,-1.43359c-0.48047,-1.33984 -0.28906,-2.58203 0.67969,-3.63281c0.77344,-0.85937 1.73828,-1.53125 2.99609,-1.625c0.77344,-0.09375 1.44922,0.09375 2.02734,0.47656c0.09766,0.09766 0.19531,0.09766 0.39063,0.19141c-0.09766,-0.28516 -0.19531,-0.47656 -0.29297,-0.76172c-0.96484,-2.96484 -2.02734,-5.92969 -2.99609,-8.89062c-0.38672,-1.24219 -0.67578,-2.48437 -0.96484,-3.72656c0,-1.14844 0.09375,-2.19922 0.48047,-3.15625c0.77344,-1.625 2.22266,-2.00391 3.38281,-1.8125c0.77344,0.1875 1.25781,0.66797 1.64453,1.24219c0.87109,1.14453 1.54688,2.38672 2.22266,3.72656c1.35547,2.67578 2.32031,5.54297 3.28906,8.41016c0.19141,0.57422 0.38672,1.05078 0.57813,1.625c0,0.09375 0.09766,0.09375 0.19141,0.19141c0.19531,-0.57422 0.48438,-1.14844 0.67969,-1.81641c0.77344,-2.39062 1.64063,-4.77734 2.80078,-6.97656c0.67969,-1.43359 1.45313,-2.96484 2.51563,-4.20703c0.09766,-0.28516 0.38672,-0.47656 0.57813,-0.66797c1.35547,-1.24219 3.19141,-0.85937 4.0625,0.28516c0.76953,0.95703 0.96484,2.00781 0.86719,3.15625c-0.19141,1.625 -0.67578,3.25 -1.16016,4.875c-0.86719,2.57813 -1.83594,5.16016 -2.70703,7.74219c0,0.09375 -0.09375,0.1875 -0.09375,0.28516c0.19141,0.09766 0.38672,0.09766 0.57813,0.19141c1.16016,0.38281 2.32031,0.85938 2.99609,1.91016c0.48438,0.76563 0.77344,1.625 0.96875,2.48828c0.28906,1.42969 0.28906,2.86328 0.19141,4.30078c-0.09375,1.91016 -0.48047,3.82031 -1.16016,5.54297c-1.44922,3.53516 -3.76953,6.30469 -7.25,8.02734c-1.73828,0.85938 -3.67187,1.43359 -5.60547,1.52734c-2.70703,0.28906 -5.31641,-0.09375 -7.82812,-1.14453c-3.28906,-1.33984 -6.57422,-4.68359 -7.53906,-7.74219c-0.48437,-1.53125 -0.67578,-2.96484 -0.48437,-4.58984c0.28906,-2.00391 1.54688,-3.34375 3.48047,-3.91797c0.38672,0 0.77344,0 1.0625,-0.09375zM14.13281,33.76953c0.09766,0.19141 0.29297,0.28516 0.38672,0.47656c0.48438,0.57422 0.87109,1.14844 1.35547,1.72266c0.57813,0.66797 1.16016,1.33594 1.93359,1.625c0.67578,0.28516 1.25391,0.28516 1.92969,0c0.58203,-0.28906 0.67969,-0.66797 0.58203,-1.24219c-0.09766,-0.19141 -0.19141,-0.38281 -0.28906,-0.57422c-0.67969,-1.33984 -1.54687,-2.58203 -2.60937,-3.63281c-0.58203,-0.57422 -1.06641,-1.14844 -1.74219,-1.625c-0.57812,-0.47656 -1.16016,-0.47656 -1.73828,-0.09375c-0.87109,0.57031 -1.44922,1.33594 -1.74219,2.38672c-0.28906,1.05078 -0.09375,2.10156 0.29297,3.05859c0.96484,2.58203 2.60938,4.68359 4.92969,6.11719c3.47656,2.19922 7.25,2.67578 11.11328,1.43359c4.44922,-1.43359 7.25,-4.58594 8.79688,-8.88672c0.67578,-1.81641 0.77344,-3.82422 0.77344,-5.73437c0,-0.95703 -0.09766,-1.91406 -0.38672,-2.77344c-0.28906,-0.76562 -0.77344,-1.43359 -1.54687,-1.81641c-0.48437,-0.19141 -0.87109,-0.38281 -1.35156,-0.57422c-2.99609,-1.05078 -6.08984,-1.33594 -9.18359,-1.62109c-0.67578,0 -1.25781,0 -1.93359,0.1875c-0.48437,0.19141 -0.87109,0.48047 -0.87109,1.05469c-0.09375,1.14453 0.28906,2.10156 1.25781,2.76953c0.67578,0.48047 1.54688,0.76563 2.41797,0.95703c1.93359,0.38281 3.96094,0.38281 5.99219,0.38281c0.48438,0 0.86719,0 1.35156,0.09375c0.48438,0.09766 0.58203,0.47656 0.67578,0.95703c0.09766,0.38281 -0.19141,0.57422 -0.48047,0.66797c-0.58203,0.28516 -1.0625,0.47656 -1.64453,0.66797c-2.32031,0.86328 -4.05859,2.39063 -5.31641,4.49219c-0.87109,1.53125 -1.16016,3.15625 -0.48437,4.875c0.19531,0.38281 0.29297,0.76563 0.38672,1.24219c0.09766,0.38281 0.19531,0.86328 0.09766,1.33984c-0.96484,-0.19141 -1.54687,-0.67187 -2.03125,-1.43359c-0.38281,-0.76562 -0.57812,-1.625 -0.67578,-2.48437c-0.09766,-0.48047 -0.09766,-0.95703 -0.09766,-1.43359c-0.57812,0.37891 -1.25391,0.28516 -1.92969,0.1875c0,0.19141 0.09375,0.28906 0.09375,0.38672c0.29297,1.14453 -0.19141,2.19531 -1.16016,2.86328c-0.77344,0.57422 -1.73828,0.57422 -2.60937,0.38281c-1.54687,-0.38281 -2.70703,-1.33594 -3.67187,-2.57812c-0.48437,-0.66797 -0.96875,-1.43359 -1.0625,-2.19922c-0.28906,-0.76562 -0.28906,-1.14844 0.19141,-1.625zM25.73438,20.48438v-0.09375c-0.87109,-2.58203 -1.74219,-5.25781 -2.70703,-7.83984c-0.58203,-1.625 -1.25781,-3.34375 -1.93359,-4.96875c-0.19531,-0.47656 -0.48437,-0.95703 -0.96484,-1.33984c-0.87109,-0.57031 -1.83984,-0.28516 -2.12891,0.66797c-0.09766,0.38672 -0.19141,0.76563 -0.09766,1.14844c0,1.14844 0.29297,2.19922 0.67578,3.25c1.16016,3.15625 2.22656,6.30859 3.38672,9.46094c1.15625,-0.76172 2.51172,-0.28516 3.76953,-0.28516zM33.07813,21.53516c0,-0.09375 0.09766,-0.09375 0.09766,-0.19141c1.35156,-3.62891 2.60938,-7.26172 3.76953,-10.99219c0.19531,-0.76172 0.38672,-1.42969 0.28906,-2.29297c-0.09375,-0.76172 -0.57812,-1.14844 -1.16016,-1.24219c-0.48047,0 -0.96484,0.19141 -1.25391,0.57422c-0.58203,0.66797 -0.96875,1.43359 -1.25781,2.19922c-1.54687,3.62891 -2.70703,7.35938 -3.96094,11.08594c0,0 0,0.09375 0,0.19141c1.0625,0.19141 2.22266,0.38281 3.47656,0.66797zM24.28125,33.00391c0,-0.19141 0,-0.38281 -0.09375,-0.57422c-0.28906,-0.66797 -0.48437,-1.33594 -0.77344,-2.10156c-0.77344,-1.81641 -1.74219,-3.63281 -2.99609,-5.25781c-0.38672,-0.47656 -0.87109,-0.95312 -1.44922,-1.24219c-1.25781,-0.57031 -3.09375,0.57422 -3,2.00781v0.09766c0.19531,0.47656 0.29297,1.05078 0.48438,1.52734c1.0625,2.10156 2.51563,3.91797 4.15625,5.64063c0.48438,0.47656 1.0625,0.95313 1.74219,1.24219c0.96484,0.38281 1.92969,-0.28906 1.92969,-1.33984zM26.12109,32.05078c0.77344,-1.14844 1.83594,-1.91406 2.99609,-2.77344c-1.54687,-0.09375 -2.99609,-0.28516 -4.35156,-0.76562c0.38672,1.14844 0.87109,2.29688 1.35547,3.53906z"></path></g></g></g></svg>